<?xml version="1.0" encoding="UTF-8" standalone="no"?>
<!DOCTYPE svg PUBLIC "-//W3C//DTD SVG 1.1//EN" "http://www.w3.org/Graphics/SVG/1.1/DTD/svg11.dtd">
<svg xmlns="http://www.w3.org/2000/svg" version="1.1" viewBox="0 0 148 302">
<g stroke-width="2.00" fill="none" stroke-linecap="butt">
<path stroke="#b5939d" vector-effect="non-scaling-stroke" d="
  M 148.00 23.31
  L 0.00 23.19"
/>
<path stroke="#d39692" vector-effect="non-scaling-stroke" d="
  M 148.00 87.06
  Q 147.87 85.20 146.74 86.05
  A 1.03 0.95 -61.4 0 1 146.15 86.25
  Q 73.07 86.96 0.00 85.94"
/>
<path stroke="#f09988" vector-effect="non-scaling-stroke" d="
  M 148.00 121.56
  C 138.55 123.14 128.89 122.91 119.72 124.35
  C 103.42 126.92 86.87 127.80 70.79 130.32
  Q 46.19 134.17 21.37 136.38
  A 1.00 0.99 -83.8 0 0 20.51 137.08
  Q 20.09 138.43 20.25 139.79"
/>
<path stroke="#eabf9d" vector-effect="non-scaling-stroke" d="
  M 20.25 139.79
  L 0.00 134.44"
/>
<path stroke="#f5b9a9" vector-effect="non-scaling-stroke" d="
  M 147.92 159.93
  L 142.62 164.10"
/>
<path stroke="#c69596" vector-effect="non-scaling-stroke" d="
  M 142.62 164.10
  Q 135.95 161.04 128.74 160.40
  C 125.61 160.12 123.28 158.86 120.42 157.96"
/>
<path stroke="#ffcba4" vector-effect="non-scaling-stroke" d="
  M 120.42 157.96
  Q 112.22 152.73 110.44 151.79
  C 83.17 137.50 50.15 144.12 31.43 168.88
  Q 29.58 171.33 27.71 173.80
  A 1.00 1.00 0.0 0 1 26.67 174.17
  Q 18.73 172.24 10.72 173.85"
/>
<path stroke="#c49e75" vector-effect="non-scaling-stroke" d="
  M 10.72 173.85
  Q 5.31 173.67 0.00 172.19"
/>
<path stroke="#fec995" vector-effect="non-scaling-stroke" d="
  M 0.00 148.19
  Q 13.59 149.70 27.25 150.21"
/>
<path stroke="#f8c199" vector-effect="non-scaling-stroke" d="
  M 27.25 150.21
  C 29.70 150.39 36.72 150.67 36.99 147.72
  A 1.01 1.01 0.0 0 0 36.72 146.94
  C 33.26 143.27 23.94 140.96 20.25 139.79"
/>
<path stroke="#f8efaa" vector-effect="non-scaling-stroke" d="
  M 27.25 150.21
  Q 27.58 147.83 25.24 147.26
  Q 12.65 144.20 0.06 141.18"
/>
<path stroke="#c7c4b5" vector-effect="non-scaling-stroke" d="
  M 120.42 157.96
  L 117.20 158.17"
/>
<path stroke="#f6e9c9" vector-effect="non-scaling-stroke" d="
  M 117.20 158.17
  Q 115.41 157.24 113.27 158.50
  C 108.99 161.03 102.71 165.84 97.12 167.66
  Q 91.17 169.59 84.73 169.53"
/>
<path stroke="#c7c4b5" vector-effect="non-scaling-stroke" d="
  M 84.73 169.53
  L 75.60 167.97"
/>
<path stroke="#efe5c7" vector-effect="non-scaling-stroke" d="
  M 75.60 167.97
  Q 70.19 171.95 63.91 173.83
  Q 56.55 176.03 48.99 177.48
  Q 47.73 177.72 47.92 179.08
  A 1.02 1.02 0.0 0 1 47.72 179.82
  L 43.04 186.00"
/>
<path stroke="#f7f3da" vector-effect="non-scaling-stroke" d="
  M 43.04 186.00
  L 41.79 185.50"
/>
<path stroke="#dfddc1" vector-effect="non-scaling-stroke" d="
  M 41.79 185.50
  L 43.38 183.06
  A 0.99 0.99 0.0 0 0 43.37 181.95
  L 42.71 181.00"
/>
<path stroke="#c5ce95" vector-effect="non-scaling-stroke" d="
  M 42.71 181.00
  L 43.66 179.38
  A 1.00 1.00 0.0 0 0 42.93 177.88
  L 10.72 173.85"
/>
<path stroke="#bdb3bb" vector-effect="non-scaling-stroke" d="
  M 117.20 158.17
  Q 118.76 161.62 122.37 162.76
  A 1.01 1.00 20.4 0 1 122.99 164.10
  Q 122.15 166.11 122.69 168.28
  A 1.00 0.99 -26.0 0 1 122.33 169.31
  Q 117.57 173.00 112.00 175.21"
/>
<path stroke="#bbbc9a" vector-effect="non-scaling-stroke" d="
  M 112.00 175.21
  L 106.98 177.73
  A 0.79 0.79 0.0 0 0 106.60 178.75
  L 106.71 179.00"
/>
<path stroke="#d6ccc7" vector-effect="non-scaling-stroke" d="
  M 106.71 179.00
  Q 106.38 179.91 105.70 180.58
  A 1.02 1.00 -32.8 0 0 105.46 181.64
  Q 106.97 185.72 107.85 186.67
  C 109.43 188.38 109.84 190.72 110.85 192.35
  Q 126.44 217.48 148.00 237.81"
/>
<path stroke="#cfc5c8" vector-effect="non-scaling-stroke" d="
  M 148.00 242.31
  Q 147.73 243.29 147.21 242.75"
/>
<path stroke="#d6caca" vector-effect="non-scaling-stroke" d="
  M 147.21 242.75
  Q 131.02 225.17 117.57 205.82"
/>
<path stroke="#ddcfcb" vector-effect="non-scaling-stroke" d="
  M 117.57 205.82
  L 106.93 188.59"
/>
<path stroke="#e6d4cd" vector-effect="non-scaling-stroke" d="
  M 106.93 188.59
  L 103.26 180.94
  A 0.99 0.98 -13.9 0 0 102.32 180.38
  C 95.05 180.65 87.63 180.01 80.42 180.59
  Q 78.45 180.75 76.67 179.95"
/>
<path stroke="#bdb3bb" vector-effect="non-scaling-stroke" d="
  M 76.67 179.95
  L 80.96 175.22
  Q 81.12 175.05 81.33 174.96
  Q 84.67 173.64 84.73 169.53"
/>
<path stroke="#bdb3bb" vector-effect="non-scaling-stroke" d="
  M 142.62 164.10
  C 142.44 169.43 137.99 168.80 134.41 169.94
  C 131.15 170.98 128.50 174.06 125.00 175.54"
/>
<path stroke="#8c9887" vector-effect="non-scaling-stroke" d="
  M 125.00 175.54
  Q 120.23 175.74 114.75 177.00
  Q 112.48 177.52 112.00 175.21"
/>
<path stroke="#8c929e" vector-effect="non-scaling-stroke" d="
  M 132.39 165.58
  Q 131.18 164.68 129.77 164.87
  A 0.99 0.99 0.0 0 0 128.91 165.98
  Q 129.32 169.31 132.36 167.21
  A 1.01 1.00 46.2 0 0 132.39 165.58"
/>
<path stroke="#c9b5b8" vector-effect="non-scaling-stroke" d="
  M 148.00 165.31
  L 147.25 166.96"
/>
<path stroke="#bbb6b1" vector-effect="non-scaling-stroke" d="
  M 147.25 166.96
  Q 140.87 168.66 136.93 173.62"
/>
<path stroke="#bbbc9a" vector-effect="non-scaling-stroke" d="
  M 136.93 173.62
  Q 131.13 175.30 125.00 175.54"
/>
<path stroke="#989a84" vector-effect="non-scaling-stroke" d="
  M 148.00 174.31
  L 146.96 172.25"
/>
<path stroke="#98949b" vector-effect="non-scaling-stroke" d="
  M 146.96 172.25
  Q 147.93 169.59 147.25 166.96"
/>
<path stroke="#8a9b7d" vector-effect="non-scaling-stroke" d="
  M 146.96 172.25
  L 136.93 173.62"
/>
<path stroke="#b7afb9" vector-effect="non-scaling-stroke" d="
  M 76.67 179.95
  Q 76.08 180.10 75.53 179.98
  A 1.00 1.00 0.0 0 1 74.95 178.38
  L 78.15 174.34
  A 1.00 0.99 46.6 0 0 78.18 173.13
  Q 76.61 170.98 75.60 167.97"
/>
<path stroke="#d7cbca" vector-effect="non-scaling-stroke" d="
  M 106.93 188.59
  L 105.54 189.30
  Q 105.36 189.39 105.15 189.40
  Q 90.65 190.37 76.12 189.86
  A 0.99 0.99 0.0 0 0 75.09 190.89
  L 75.23 195.64
  A 0.41 0.41 0.0 0 1 74.74 196.06
  L 74.38 195.98
  A 1.00 0.99 -82.5 0 1 73.60 194.96
  L 73.77 190.82
  A 1.00 1.00 0.0 0 0 72.59 189.80
  Q 71.83 189.94 71.07 190.06
  Q 69.83 190.26 68.41 190.20
  C 57.84 189.79 47.93 188.66 43.53 190.01
  A 0.99 0.98 63.0 0 1 42.44 189.65
  Q 41.96 189.01 41.25 188.71"
/>
<path stroke="#e7dede" vector-effect="non-scaling-stroke" d="
  M 41.25 188.71
  L 43.04 186.00"
/>
<path stroke="#a5b193" vector-effect="non-scaling-stroke" d="
  M 42.71 181.00
  L 42.29 181.25"
/>
<path stroke="#829c61" vector-effect="non-scaling-stroke" d="
  M 42.29 181.25
  C 41.44 179.23 4.50 179.75 0.00 179.69"
/>
<path stroke="#829c61" vector-effect="non-scaling-stroke" d="
  M 147.97 175.66
  C 140.26 176.93 132.59 180.44 122.51 183.01
  Q 120.15 183.61 108.50 182.54"
/>
<path stroke="#a5b193" vector-effect="non-scaling-stroke" d="
  M 108.50 182.54
  L 106.71 179.00"
/>
<path stroke="#738f59" vector-effect="non-scaling-stroke" d="
  M 148.00 195.06
  L 115.91 194.62"
/>
<path stroke="#9cab8d" vector-effect="non-scaling-stroke" d="
  M 115.91 194.62
  Q 111.57 189.16 108.50 182.54"
/>
<path stroke="#96a48b" vector-effect="non-scaling-stroke" d="
  M 115.91 194.62
  Q 129.88 215.10 148.00 231.56"
/>
<path stroke="#9cab8d" vector-effect="non-scaling-stroke" d="
  M 42.29 181.25
  L 36.54 188.25"
/>
<path stroke="#738f59" vector-effect="non-scaling-stroke" d="
  M 36.54 188.25
  Q 35.50 185.91 33.45 187.55
  A 0.99 0.98 25.2 0 1 32.83 187.77
  L 0.00 188.08"
/>
<path stroke="#d7d6d8" vector-effect="non-scaling-stroke" d="
  M 41.79 185.50
  C 29.22 201.75 16.49 215.48 0.00 230.44"
/>
<path stroke="#96a48b" vector-effect="non-scaling-stroke" d="
  M 0.21 220.24
  Q 15.87 209.06 29.67 195.66
  Q 33.30 192.14 36.54 188.25"
/>
<path stroke="#ded9dc" vector-effect="non-scaling-stroke" d="
  M 41.25 188.71
  L 29.29 203.50"
/>
<path stroke="#d7d4db" vector-effect="non-scaling-stroke" d="
  M 29.29 203.50
  Q 15.54 219.56 0.43 234.40"
/>
<path stroke="#c7c1c7" vector-effect="non-scaling-stroke" d="
  M 117.57 205.82
  Q 98.24 206.55 79.06 206.29
  Q 77.46 206.27 76.29 207.75"
/>
<path stroke="#ded9dc" vector-effect="non-scaling-stroke" d="
  M 76.29 207.75
  Q 74.64 206.81 72.79 207.25"
/>
<path stroke="#c7c1c7" vector-effect="non-scaling-stroke" d="
  M 72.79 207.25
  Q 72.81 207.09 72.81 206.95
  A 1.00 0.99 88.7 0 0 71.75 205.93
  C 58.10 206.88 44.15 205.39 31.75 205.08
  A 0.99 0.97 64.0 0 1 31.19 204.88
  L 29.29 203.50"
/>
<path stroke="#ded9dc" vector-effect="non-scaling-stroke" d="
  M 73.55 199.77
  Q 74.38 200.15 75.10 199.85
  A 1.00 0.99 68.2 0 0 75.64 198.57
  Q 74.84 196.49 73.24 198.17
  A 1.01 1.00 34.2 0 0 73.55 199.77"
/>
<path stroke="#ded9dc" vector-effect="non-scaling-stroke" d="
  M 74.03 201.65
  Q 72.58 202.48 72.52 204.25
  A 1.00 1.00 0.0 0 0 73.51 205.28
  Q 77.92 205.33 75.32 201.91
  A 1.01 1.00 -33.5 0 0 74.03 201.65"
/>
<path stroke="#d7d4db" vector-effect="non-scaling-stroke" d="
  M 72.79 207.25
  Q 70.65 212.79 75.73 211.48
  A 1.01 1.01 0.0 0 0 76.48 210.44
  L 76.29 207.75"
/>
<path stroke="#b9b8c4" vector-effect="non-scaling-stroke" d="
  M 147.21 242.75
  L 78.54 242.41"
/>
<path stroke="#d7d4db" vector-effect="non-scaling-stroke" d="
  M 78.54 242.41
  L 78.09 235.19
  A 1.00 1.00 0.0 0 0 77.09 234.25
  L 71.59 234.25
  A 1.00 0.99 1.5 0 0 70.59 235.19
  L 70.21 242.00"
/>
<path stroke="#b9b8c4" vector-effect="non-scaling-stroke" d="
  M 70.21 242.00
  C 64.21 242.72 57.19 242.24 52.46 242.24
  Q 26.22 242.20 0.01 242.11"
/>
<path stroke="#d7d4db" vector-effect="non-scaling-stroke" d="
  M 77.0417 214.7247
  A 0.81 0.81 0.0 0 0 76.2489 213.8979
  L 72.6897 213.8233
  A 0.81 0.81 0.0 0 0 71.8629 214.6162
  L 71.7783 218.6553
  A 0.81 0.81 0.0 0 0 72.5711 219.4821
  L 76.1303 219.5567
  A 0.81 0.81 0.0 0 0 76.9571 218.7638
  L 77.0417 214.7247"
/>
<path stroke="#d7d4db" vector-effect="non-scaling-stroke" d="
  M 77.6476 223.4060
  A 0.60 0.60 0.0 0 0 77.0657 222.7884
  L 71.8879 222.6347
  A 0.60 0.60 0.0 0 0 71.2704 223.2167
  L 71.0924 229.2140
  A 0.60 0.60 0.0 0 0 71.6743 229.8316
  L 76.8521 229.9853
  A 0.60 0.60 0.0 0 0 77.4696 229.4033
  L 77.6476 223.4060"
/>
<path stroke="#d0cfd9" vector-effect="non-scaling-stroke" d="
  M 78.54 242.41
  L 78.75 243.26
  A 1.00 1.00 0.0 0 1 77.78 244.50
  L 71.13 244.50
  A 1.00 1.00 0.0 0 1 70.13 243.44
  L 70.21 242.00"
/>
<path stroke="#aca3b1" vector-effect="non-scaling-stroke" d="
  M 148.00 301.56
  L 128.69 302.00"
/>
<path stroke="#ccced8" vector-effect="non-scaling-stroke" d="
  M 75.08 250.53
  Q 72.84 250.29 70.46 250.55
  A 1.00 1.00 0.0 0 0 69.57 251.46
  L 68.57 264.67
  A 1.00 1.00 0.0 0 0 69.57 265.74
  L 79.04 265.75
  A 1.00 0.99 88.4 0 0 80.04 264.69
  L 79.27 251.72
  A 1.01 0.99 89.0 0 0 78.31 250.78
  Q 76.71 250.71 75.08 250.53"
/>
<path stroke="#ccced8" vector-effect="non-scaling-stroke" d="
  M 66.41 298.94
  A 0.62 0.62 0.0 0 0 67.02 299.60
  L 81.70 299.89
  A 0.62 0.62 0.0 0 0 82.33 299.23
  L 80.88 275.79
  A 0.62 0.62 0.0 0 0 80.27 275.21
  L 68.48 274.92
  A 0.62 0.62 0.0 0 0 67.84 275.51
  L 66.41 298.94"
/>
</g>
<path fill="#a692a1" d="
  M 0.00 0.00
  L 148.00 0.00
  L 148.00 23.31
  L 0.00 23.19
  L 0.00 0.00
  Z"
/>
<path fill="#c49498" d="
  M 148.00 23.31
  L 148.00 87.06
  Q 147.87 85.20 146.74 86.05
  A 1.03 0.95 -61.4 0 1 146.15 86.25
  Q 73.07 86.96 0.00 85.94
  L 0.00 23.19
  L 148.00 23.31
  Z"
/>
<path fill="#e1978c" d="
  M 148.00 87.06
  L 148.00 121.56
  C 138.55 123.14 128.89 122.91 119.72 124.35
  C 103.42 126.92 86.87 127.80 70.79 130.32
  Q 46.19 134.17 21.37 136.38
  A 1.00 0.99 -83.8 0 0 20.51 137.08
  Q 20.09 138.43 20.25 139.79
  L 0.00 134.44
  L 0.00 85.94
  Q 73.07 86.96 146.15 86.25
  A 1.03 0.95 -61.4 0 0 146.74 86.05
  Q 147.87 85.20 148.00 87.06
  Z"
/>
<path fill="#fe9b84" d="
  M 148.00 121.56
  L 147.92 159.93
  L 142.62 164.10
  Q 135.95 161.04 128.74 160.40
  C 125.61 160.12 123.28 158.86 120.42 157.96
  Q 112.22 152.73 110.44 151.79
  C 83.17 137.50 50.15 144.12 31.43 168.88
  Q 29.58 171.33 27.71 173.80
  A 1.00 1.00 0.0 0 1 26.67 174.17
  Q 18.73 172.24 10.72 173.85
  Q 5.31 173.67 0.00 172.19
  L 0.00 148.19
  Q 13.59 149.70 27.25 150.21
  C 29.70 150.39 36.72 150.67 36.99 147.72
  A 1.01 1.01 0.0 0 0 36.72 146.94
  C 33.26 143.27 23.94 140.96 20.25 139.79
  Q 20.09 138.43 20.51 137.08
  A 1.00 0.99 -83.8 0 1 21.37 136.38
  Q 46.19 134.17 70.79 130.32
  C 86.87 127.80 103.42 126.92 119.72 124.35
  C 128.89 122.91 138.55 123.14 148.00 121.56
  Z"
/>
<path fill="#f2e7ad" d="
  M 0.00 134.44
  L 20.25 139.79
  C 23.94 140.96 33.26 143.27 36.72 146.94
  A 1.01 1.01 0.0 0 1 36.99 147.72
  C 36.72 150.67 29.70 150.39 27.25 150.21
  Q 27.58 147.83 25.24 147.26
  Q 12.65 144.20 0.06 141.18
  L 0.00 134.44
  Z"
/>
<path fill="#fef7a6" d="
  M 0.06 141.18
  Q 12.65 144.20 25.24 147.26
  Q 27.58 147.83 27.25 150.21
  Q 13.59 149.70 0.00 148.19
  L 0.06 141.18
  Z"
/>
<path fill="#fffac3" d="
  M 120.42 157.96
  L 117.20 158.17
  Q 115.41 157.24 113.27 158.50
  C 108.99 161.03 102.71 165.84 97.12 167.66
  Q 91.17 169.59 84.73 169.53
  L 75.60 167.97
  Q 70.19 171.95 63.91 173.83
  Q 56.55 176.03 48.99 177.48
  Q 47.73 177.72 47.92 179.08
  A 1.02 1.02 0.0 0 1 47.72 179.82
  L 43.04 186.00
  L 41.79 185.50
  L 43.38 183.06
  A 0.99 0.99 0.0 0 0 43.37 181.95
  L 42.71 181.00
  L 43.66 179.38
  A 1.00 1.00 0.0 0 0 42.93 177.88
  L 10.72 173.85
  Q 18.73 172.24 26.67 174.17
  A 1.00 1.00 0.0 0 0 27.71 173.80
  Q 29.58 171.33 31.43 168.88
  C 50.15 144.12 83.17 137.50 110.44 151.79
  Q 112.22 152.73 120.42 157.96
  Z"
/>
<path fill="#ecd7ce" d="
  M 117.20 158.17
  Q 118.76 161.62 122.37 162.76
  A 1.01 1.00 20.4 0 1 122.99 164.10
  Q 122.15 166.11 122.69 168.28
  A 1.00 0.99 -26.0 0 1 122.33 169.31
  Q 117.57 173.00 112.00 175.21
  L 106.98 177.73
  A 0.79 0.79 0.0 0 0 106.60 178.75
  L 106.71 179.00
  Q 106.38 179.91 105.70 180.58
  A 1.02 1.00 -32.8 0 0 105.46 181.64
  Q 106.97 185.72 107.85 186.67
  C 109.43 188.38 109.84 190.72 110.85 192.35
  Q 126.44 217.48 148.00 237.81
  L 148.00 242.31
  Q 147.73 243.29 147.21 242.75
  Q 131.02 225.17 117.57 205.82
  L 106.93 188.59
  L 103.26 180.94
  A 0.99 0.98 -13.9 0 0 102.32 180.38
  C 95.05 180.65 87.63 180.01 80.42 180.59
  Q 78.45 180.75 76.67 179.95
  L 80.96 175.22
  Q 81.12 175.05 81.33 174.96
  Q 84.67 173.64 84.73 169.53
  Q 91.17 169.59 97.12 167.66
  C 102.71 165.84 108.99 161.03 113.27 158.50
  Q 115.41 157.24 117.20 158.17
  Z"
/>
<path fill="#8e8ea7" d="
  M 117.20 158.17
  L 120.42 157.96
  C 123.28 158.86 125.61 160.12 128.74 160.40
  Q 135.95 161.04 142.62 164.10
  C 142.44 169.43 137.99 168.80 134.41 169.94
  C 131.15 170.98 128.50 174.06 125.00 175.54
  Q 120.23 175.74 114.75 177.00
  Q 112.48 177.52 112.00 175.21
  Q 117.57 173.00 122.33 169.31
  A 1.00 0.99 -26.0 0 0 122.69 168.28
  Q 122.15 166.11 122.99 164.10
  A 1.01 1.00 20.4 0 0 122.37 162.76
  Q 118.76 161.62 117.20 158.17
  Z
  M 132.39 165.58
  Q 131.18 164.68 129.77 164.87
  A 0.99 0.99 0.0 0 0 128.91 165.98
  Q 129.32 169.31 132.36 167.21
  A 1.01 1.00 46.2 0 0 132.39 165.58
  Z"
/>
<path fill="#ecd7ce" d="
  M 147.92 159.93
  L 148.00 165.31
  L 147.25 166.96
  Q 140.87 168.66 136.93 173.62
  Q 131.13 175.30 125.00 175.54
  C 128.50 174.06 131.15 170.98 134.41 169.94
  C 137.99 168.80 142.44 169.43 142.62 164.10
  L 147.92 159.93
  Z"
/>
<path fill="#8a9594" d="
  M 132.39 165.58
  A 1.01 1.00 46.2 0 1 132.36 167.21
  Q 129.32 169.31 128.91 165.98
  A 0.99 0.99 0.0 0 1 129.77 164.87
  Q 131.18 164.68 132.39 165.58
  Z"
/>
<path fill="#a692a1" d="
  M 148.00 165.31
  L 148.00 174.31
  L 146.96 172.25
  Q 147.93 169.59 147.25 166.96
  L 148.00 165.31
  Z"
/>
<path fill="#8a9594" d="
  M 147.25 166.96
  Q 147.93 169.59 146.96 172.25
  L 136.93 173.62
  Q 140.87 168.66 147.25 166.96
  Z"
/>
<path fill="#8e8ea7" d="
  M 84.73 169.53
  Q 84.67 173.64 81.33 174.96
  Q 81.12 175.05 80.96 175.22
  L 76.67 179.95
  Q 76.08 180.10 75.53 179.98
  A 1.00 1.00 0.0 0 1 74.95 178.38
  L 78.15 174.34
  A 1.00 0.99 46.6 0 0 78.18 173.13
  Q 76.61 170.98 75.60 167.97
  L 84.73 169.53
  Z"
/>
<path fill="#dfd0cb" d="
  M 75.60 167.97
  Q 76.61 170.98 78.18 173.13
  A 1.00 0.99 46.6 0 1 78.15 174.34
  L 74.95 178.38
  A 1.00 1.00 0.0 0 0 75.53 179.98
  Q 76.08 180.10 76.67 179.95
  Q 78.45 180.75 80.42 180.59
  C 87.63 180.01 95.05 180.65 102.32 180.38
  A 0.99 0.98 -13.9 0 1 103.26 180.94
  L 106.93 188.59
  L 105.54 189.30
  Q 105.36 189.39 105.15 189.40
  Q 90.65 190.37 76.12 189.86
  A 0.99 0.99 0.0 0 0 75.09 190.89
  L 75.23 195.64
  A 0.41 0.41 0.0 0 1 74.74 196.06
  L 74.38 195.98
  A 1.00 0.99 -82.5 0 1 73.60 194.96
  L 73.77 190.82
  A 1.00 1.00 0.0 0 0 72.59 189.80
  Q 71.83 189.94 71.07 190.06
  Q 69.83 190.26 68.41 190.20
  C 57.84 189.79 47.93 188.66 43.53 190.01
  A 0.99 0.98 63.0 0 1 42.44 189.65
  Q 41.96 189.01 41.25 188.71
  L 43.04 186.00
  L 47.72 179.82
  A 1.02 1.02 0.0 0 0 47.92 179.08
  Q 47.73 177.72 48.99 177.48
  Q 56.55 176.03 63.91 173.83
  Q 70.19 171.95 75.60 167.97
  Z"
/>
<path fill="#8aa166" d="
  M 0.00 172.19
  Q 5.31 173.67 10.72 173.85
  L 42.93 177.88
  A 1.00 1.00 0.0 0 1 43.66 179.38
  L 42.71 181.00
  L 42.29 181.25
  C 41.44 179.23 4.50 179.75 0.00 179.69
  L 0.00 172.19
  Z"
/>
<path fill="#8aa166" d="
  M 146.96 172.25
  L 148.00 174.31
  L 147.97 175.66
  C 140.26 176.93 132.59 180.44 122.51 183.01
  Q 120.15 183.61 108.50 182.54
  L 106.71 179.00
  L 106.60 178.75
  A 0.79 0.79 0.0 0 1 106.98 177.73
  L 112.00 175.21
  Q 112.48 177.52 114.75 177.00
  Q 120.23 175.74 125.00 175.54
  Q 131.13 175.30 136.93 173.62
  L 146.96 172.25
  Z"
/>
<path fill="#79965b" d="
  M 147.97 175.66
  L 148.00 195.06
  L 115.91 194.62
  Q 111.57 189.16 108.50 182.54
  Q 120.15 183.61 122.51 183.01
  C 132.59 180.44 140.26 176.93 147.97 175.66
  Z"
/>
<path fill="#bfc0bf" d="
  M 106.71 179.00
  L 108.50 182.54
  Q 111.57 189.16 115.91 194.62
  Q 129.88 215.10 148.00 231.56
  L 148.00 237.81
  Q 126.44 217.48 110.85 192.35
  C 109.84 190.72 109.43 188.38 107.85 186.67
  Q 106.97 185.72 105.46 181.64
  A 1.02 1.00 -32.8 0 1 105.70 180.58
  Q 106.38 179.91 106.71 179.00
  Z"
/>
<path fill="#79965b" d="
  M 0.00 179.69
  C 4.50 179.75 41.44 179.23 42.29 181.25
  L 36.54 188.25
  Q 35.50 185.91 33.45 187.55
  A 0.99 0.98 25.2 0 1 32.83 187.77
  L 0.00 188.08
  L 0.00 179.69
  Z"
/>
<path fill="#bfc0bf" d="
  M 42.71 181.00
  L 43.37 181.95
  A 0.99 0.99 0.0 0 1 43.38 183.06
  L 41.79 185.50
  C 29.22 201.75 16.49 215.48 0.00 230.44
  L 0.21 220.24
  Q 15.87 209.06 29.67 195.66
  Q 33.30 192.14 36.54 188.25
  L 42.29 181.25
  L 42.71 181.00
  Z"
/>
<path fill="#eeebf0" d="
  M 41.79 185.50
  L 43.04 186.00
  L 41.25 188.71
  L 29.29 203.50
  Q 15.54 219.56 0.43 234.40
  Q -0.31 231.85 0.00 230.44
  C 16.49 215.48 29.22 201.75 41.79 185.50
  Z"
/>
<path fill="#6c8856" d="
  M 36.54 188.25
  Q 33.30 192.14 29.67 195.66
  Q 15.87 209.06 0.21 220.24
  L 0.00 188.08
  L 32.83 187.77
  A 0.99 0.98 25.2 0 0 33.45 187.55
  Q 35.50 185.91 36.54 188.25
  Z"
/>
<path fill="#cec6c8" d="
  M 41.25 188.71
  Q 41.96 189.01 42.44 189.65
  A 0.99 0.98 63.0 0 0 43.53 190.01
  C 47.93 188.66 57.84 189.79 68.41 190.20
  Q 69.83 190.26 71.07 190.06
  Q 71.83 189.94 72.59 189.80
  A 1.00 1.00 0.0 0 1 73.77 190.82
  L 73.60 194.96
  A 1.00 0.99 -82.5 0 0 74.38 195.98
  L 74.74 196.06
  A 0.41 0.41 0.0 0 0 75.23 195.64
  L 75.09 190.89
  A 0.99 0.99 0.0 0 1 76.12 189.86
  Q 90.65 190.37 105.15 189.40
  Q 105.36 189.39 105.54 189.30
  L 106.93 188.59
  L 117.57 205.82
  Q 98.24 206.55 79.06 206.29
  Q 77.46 206.27 76.29 207.75
  Q 74.64 206.81 72.79 207.25
  Q 72.81 207.09 72.81 206.95
  A 1.00 0.99 88.7 0 0 71.75 205.93
  C 58.10 206.88 44.15 205.39 31.75 205.08
  A 0.99 0.97 64.0 0 1 31.19 204.88
  L 29.29 203.50
  L 41.25 188.71
  Z
  M 73.55 199.77
  Q 74.38 200.15 75.10 199.85
  A 1.00 0.99 68.2 0 0 75.64 198.57
  Q 74.84 196.49 73.24 198.17
  A 1.01 1.00 34.2 0 0 73.55 199.77
  Z
  M 74.03 201.65
  Q 72.58 202.48 72.52 204.25
  A 1.00 1.00 0.0 0 0 73.51 205.28
  Q 77.92 205.33 75.32 201.91
  A 1.01 1.00 -33.5 0 0 74.03 201.65
  Z"
/>
<path fill="#6c8856" d="
  M 148.00 195.06
  L 148.00 231.56
  Q 129.88 215.10 115.91 194.62
  L 148.00 195.06
  Z"
/>
<path fill="#eeebf0" d="
  M 73.55 199.77
  A 1.01 1.00 34.2 0 1 73.24 198.17
  Q 74.84 196.49 75.64 198.57
  A 1.00 0.99 68.2 0 1 75.10 199.85
  Q 74.38 200.15 73.55 199.77
  Z"
/>
<path fill="#eeebf0" d="
  M 75.32 201.91
  Q 77.92 205.33 73.51 205.28
  A 1.00 1.00 0.0 0 1 72.52 204.25
  Q 72.58 202.48 74.03 201.65
  A 1.01 1.00 -33.5 0 1 75.32 201.91
  Z"
/>
<path fill="#c0bcc6" d="
  M 29.29 203.50
  L 31.19 204.88
  A 0.99 0.97 64.0 0 0 31.75 205.08
  C 44.15 205.39 58.10 206.88 71.75 205.93
  A 1.00 0.99 88.7 0 1 72.81 206.95
  Q 72.81 207.09 72.79 207.25
  Q 70.65 212.79 75.73 211.48
  A 1.01 1.01 0.0 0 0 76.48 210.44
  L 76.29 207.75
  Q 77.46 206.27 79.06 206.29
  Q 98.24 206.55 117.57 205.82
  Q 131.02 225.17 147.21 242.75
  L 78.54 242.41
  L 78.09 235.19
  A 1.00 1.00 0.0 0 0 77.09 234.25
  L 71.59 234.25
  A 1.00 0.99 1.5 0 0 70.59 235.19
  L 70.21 242.00
  C 64.21 242.72 57.19 242.24 52.46 242.24
  Q 26.22 242.20 0.01 242.11
  Q -0.32 237.76 0.43 234.40
  Q 15.54 219.56 29.29 203.50
  Z
  M 77.0417 214.7247
  A 0.81 0.81 0.0 0 0 76.2489 213.8979
  L 72.6897 213.8233
  A 0.81 0.81 0.0 0 0 71.8629 214.6162
  L 71.7783 218.6553
  A 0.81 0.81 0.0 0 0 72.5711 219.4821
  L 76.1303 219.5567
  A 0.81 0.81 0.0 0 0 76.9571 218.7638
  L 77.0417 214.7247
  Z
  M 77.6476 223.4060
  A 0.60 0.60 0.0 0 0 77.0657 222.7884
  L 71.8879 222.6347
  A 0.60 0.60 0.0 0 0 71.2704 223.2167
  L 71.0924 229.2140
  A 0.60 0.60 0.0 0 0 71.6743 229.8316
  L 76.8521 229.9853
  A 0.60 0.60 0.0 0 0 77.4696 229.4033
  L 77.6476 223.4060
  Z"
/>
<path fill="#eeebf0" d="
  M 76.29 207.75
  L 76.48 210.44
  A 1.01 1.01 0.0 0 1 75.73 211.48
  Q 70.65 212.79 72.79 207.25
  Q 74.64 206.81 76.29 207.75
  Z"
/>
<rect fill="#eeebf0" x="-2.59" y="-2.83" transform="translate(74.41,216.69) rotate(1.2)" width="5.18" height="5.66" rx="0.81"/>
<rect fill="#eeebf0" x="-3.19" y="-3.60" transform="translate(74.37,226.31) rotate(1.7)" width="6.38" height="7.20" rx="0.60"/>
<path fill="#eeebf0" d="
  M 78.54 242.41
  L 78.75 243.26
  A 1.00 1.00 0.0 0 1 77.78 244.50
  L 71.13 244.50
  A 1.00 1.00 0.0 0 1 70.13 243.44
  L 70.21 242.00
  L 70.59 235.19
  A 1.00 0.99 1.5 0 1 71.59 234.25
  L 77.09 234.25
  A 1.00 1.00 0.0 0 1 78.09 235.19
  L 78.54 242.41
  Z"
/>
<path fill="#b1b3c1" d="
  M 147.21 242.75
  Q 147.73 243.29 148.00 242.31
  L 148.00 301.56
  L 128.69 302.00
  L 0.00 302.00
  L 0.01 242.11
  Q 26.22 242.20 52.46 242.24
  C 57.19 242.24 64.21 242.72 70.21 242.00
  L 70.13 243.44
  A 1.00 1.00 0.0 0 0 71.13 244.50
  L 77.78 244.50
  A 1.00 1.00 0.0 0 0 78.75 243.26
  L 78.54 242.41
  L 147.21 242.75
  Z
  M 75.08 250.53
  Q 72.84 250.29 70.46 250.55
  A 1.00 1.00 0.0 0 0 69.57 251.46
  L 68.57 264.67
  A 1.00 1.00 0.0 0 0 69.57 265.74
  L 79.04 265.75
  A 1.00 0.99 88.4 0 0 80.04 264.69
  L 79.27 251.72
  A 1.01 0.99 89.0 0 0 78.31 250.78
  Q 76.71 250.71 75.08 250.53
  Z
  M 66.41 298.94
  A 0.62 0.62 0.0 0 0 67.02 299.60
  L 81.70 299.89
  A 0.62 0.62 0.0 0 0 82.33 299.23
  L 80.88 275.79
  A 0.62 0.62 0.0 0 0 80.27 275.21
  L 68.48 274.92
  A 0.62 0.62 0.0 0 0 67.84 275.51
  L 66.41 298.94
  Z"
/>
<path fill="#e7e8ee" d="
  M 75.08 250.53
  Q 76.71 250.71 78.31 250.78
  A 1.01 0.99 89.0 0 1 79.27 251.72
  L 80.04 264.69
  A 1.00 0.99 88.4 0 1 79.04 265.75
  L 69.57 265.74
  A 1.00 1.00 0.0 0 1 68.57 264.67
  L 69.57 251.46
  A 1.00 1.00 0.0 0 1 70.46 250.55
  Q 72.84 250.29 75.08 250.53
  Z"
/>
<path fill="#e7e8ee" d="
  M 66.41 298.94
  L 67.84 275.51
  A 0.62 0.62 0.0 0 1 68.48 274.92
  L 80.27 275.21
  A 0.62 0.62 0.0 0 1 80.88 275.79
  L 82.33 299.23
  A 0.62 0.62 0.0 0 1 81.70 299.89
  L 67.02 299.60
  A 0.62 0.62 0.0 0 1 66.41 298.94
  Z"
/>
<path fill="#a692a1" d="
  M 148.00 301.56
  L 148.00 302.00
  L 128.69 302.00
  L 148.00 301.56
  Z"
/>
</svg>
